<?xml version="1.0" encoding="iso-8859-1"?>
<!-- Generator: Adobe Illustrator 19.0.0, SVG Export Plug-In . SVG Version: 6.00 Build 0)  -->
<svg version="1.1" id="Layer_1" xmlns="http://www.w3.org/2000/svg" xmlns:xlink="http://www.w3.org/1999/xlink" x="0px" y="0px"
	 viewBox="0 0 512.213 512.213" style="enable-background:new 0 0 512.213 512.213;" xml:space="preserve">
<g transform="translate(0 -1)">
	<g>
		<path d="M509.547,225.64l-74.819-74.819c-0.475-1.017-1.123-1.977-1.981-2.835L262.08,2.92c-3.413-2.56-7.68-2.56-11.093,0
			L80.32,147.987c-0.124,0.124-0.226,0.26-0.342,0.388c-0.08,0.069-0.157,0.142-0.236,0.214c-0.049,0.044-0.098,0.088-0.146,0.133
			c-0.043,0.041-0.088,0.076-0.13,0.118l-76.8,76.8c-3.413,3.413-3.413,8.533,0,11.947c1.707,1.707,3.413,2.56,5.973,2.56
			s4.267-0.853,5.973-2.56l48.282-48.282L43.627,238.44c-1.707,4.267-0.853,9.387,1.707,12.8s6.827,5.973,11.093,5.973h14.44
			l-27.24,75.093c-1.707,4.267-0.853,9.387,1.707,12.8c2.56,3.413,6.827,5.973,11.093,5.973h14.44l-27.24,75.093
			c-1.707,4.267-0.853,9.387,1.707,12.8s6.827,5.973,11.093,5.973h37.547v59.733c0,5.12,3.413,8.533,8.533,8.533h34.133
			c5.12,0,8.533-3.413,8.533-8.533v-59.733H367.04v59.733c0,5.12,3.413,8.533,8.533,8.533h34.133c5.12,0,8.533-3.413,8.533-8.533
			v-59.733h33.28c4.267,0,8.533-2.56,10.24-5.12c2.56-4.267,3.413-8.533,1.707-12.8l-27.549-75.947h15.603
			c4.267,0,8.533-2.56,10.24-5.12c2.56-4.267,3.413-8.533,1.707-12.8l-27.549-75.947h15.603c4.267,0,8.533-2.56,10.24-5.12
			c2.56-4.267,3.413-8.533,1.707-12.8l-17.92-53.76l52.053,52.053c1.707,1.707,3.413,2.56,5.973,2.56s4.267-0.853,5.973-2.56
			C512.96,234.173,512.96,229.053,509.547,225.64z M256.107,20.84l147.627,125.44H108.48L256.107,20.84z M128.107,496.147H111.04
			v-51.2h17.067V496.147z M401.173,496.147h-17.067v-51.2h17.067V496.147z M446.4,427.88h-36.693h-34.133H136.64h-34.133h-40.96
			l27.307-76.8H418.24L446.4,427.88z M446.4,334.013h-22.187H82.88H61.547l27.307-76.8H418.24L446.4,334.013z M424.213,240.147
			H82.88H61.547l29.867-76.8H420.8l25.6,76.8H424.213z"/>
	</g>
</g>
<g>
</g>
<g>
</g>
<g>
</g>
<g>
</g>
<g>
</g>
<g>
</g>
<g>
</g>
<g>
</g>
<g>
</g>
<g>
</g>
<g>
</g>
<g>
</g>
<g>
</g>
<g>
</g>
<g>
</g>
</svg>
