<?xml version="1.0" encoding="iso-8859-1"?>
<!-- Generator: Adobe Illustrator 19.0.0, SVG Export Plug-In . SVG Version: 6.00 Build 0)  -->
<svg version="1.1" id="Layer_1" xmlns="http://www.w3.org/2000/svg" xmlns:xlink="http://www.w3.org/1999/xlink" x="0px" y="0px"
	 viewBox="0 0 512 512" style="enable-background:new 0 0 512 512;" xml:space="preserve">
<g>
	<g>
		<path d="M413.416,363.52l29.433-228.155c10.39-3.261,17.951-12.981,17.951-24.432c0-14.114-11.486-25.6-25.6-25.6h-38.458
			c-23.843-15.964-48.097-35.611-76.12-61.67C304.442,8.627,280.89,0,255.998,0c-24.883,0-48.444,8.627-64.614,23.663
			c-28.032,26.059-52.286,45.706-76.121,61.67H76.8c-14.114,0-25.6,11.486-25.6,25.6c0,11.449,7.558,21.167,17.946,24.43
			L98.587,363.52c1.705,13.236,9.383,24.456,20.097,31.095c-26.138,28.874-41.886,67.146-41.886,108.851
			c0,4.71,3.823,8.533,8.533,8.533h76.802h187.733h76.798c4.71,0,8.533-3.823,8.533-8.533c0-41.704-15.747-79.976-41.884-108.85
			C404.027,387.978,411.706,376.758,413.416,363.52z M203.006,36.164c13.056-12.134,32.367-19.098,52.992-19.098
			s39.945,6.963,53.001,19.098c20.966,19.49,39.919,35.524,58.206,49.169H144.792C163.079,71.689,182.031,55.654,203.006,36.164z
			 M76.8,102.4h41.052h276.292H435.2c4.702,0,8.533,3.831,8.533,8.533c0,4.702-3.831,8.533-8.533,8.533h-97.787H174.58H76.802H76.8
			c-4.702,0-8.533-3.831-8.533-8.533C68.267,106.231,72.098,102.4,76.8,102.4z M332.797,153.6v68.267
			c0,31.426-18.984,58.493-46.083,70.369c-0.001,0-0.002,0-0.002,0.001c-19.516,8.533-41.907,8.533-61.423,0
			c-0.006-0.003-0.013-0.004-0.019-0.007c-27.09-11.879-46.073-38.942-46.073-70.363v-10.06c0-0.015,0.003-0.029,0.003-0.044v-48.06
			c0-0.015-0.003-0.029-0.003-0.044V153.6c0-5.76,0.648-11.486,1.911-17.067h149.786C332.157,142.114,332.797,147.84,332.797,153.6z
			 M315.733,426.667H196.267v-25.6h119.467V426.667z M213.398,360.704c0.141,2.628,0.529,5.19,1.126,7.672
			c0.044,0.182,0.081,0.367,0.127,0.548c0.103,0.406,0.222,0.805,0.337,1.206c0.076,0.266,0.146,0.534,0.227,0.798
			c0.108,0.352,0.23,0.698,0.347,1.046c0.103,0.307,0.202,0.615,0.312,0.919c0.115,0.317,0.241,0.627,0.363,0.94
			c0.128,0.328,0.252,0.656,0.387,0.98c0.122,0.292,0.254,0.579,0.383,0.868c0.15,0.336,0.297,0.674,0.455,1.006
			c0.13,0.272,0.268,0.539,0.403,0.809c0.172,0.341,0.342,0.683,0.523,1.019c0.136,0.254,0.28,0.503,0.421,0.753
			c0.193,0.343,0.386,0.685,0.588,1.022c0.143,0.239,0.293,0.473,0.441,0.709c0.213,0.34,0.427,0.678,0.649,1.012
			c0.15,0.225,0.306,0.447,0.461,0.669c0.232,0.334,0.466,0.667,0.708,0.995c0.08,0.108,0.158,0.218,0.238,0.325H156.55
			C173.217,372.513,192.471,364.401,213.398,360.704z M290.107,384c0.057-0.075,0.112-0.151,0.168-0.226
			c0.316-0.425,0.622-0.858,0.922-1.295c0.084-0.122,0.169-0.243,0.252-0.366c0.299-0.445,0.587-0.898,0.869-1.355
			c0.075-0.121,0.152-0.241,0.226-0.363c0.281-0.466,0.551-0.938,0.815-1.415c0.066-0.12,0.135-0.237,0.2-0.358
			c0.263-0.487,0.515-0.982,0.759-1.481c0.056-0.115,0.116-0.228,0.171-0.343c0.245-0.51,0.477-1.028,0.702-1.549
			c0.047-0.109,0.097-0.216,0.144-0.325c0.226-0.537,0.439-1.081,0.643-1.628c0.037-0.098,0.077-0.194,0.113-0.292
			c0.208-0.569,0.401-1.146,0.585-1.726c0.025-0.08,0.054-0.158,0.079-0.239c0.191-0.615,0.367-1.236,0.53-1.862
			c0.013-0.048,0.028-0.096,0.04-0.144c0.524-2.039,0.904-4.135,1.121-6.279c0.001-0.014,0.002-0.028,0.003-0.042
			c0.067-0.665,0.12-1.334,0.156-2.007c20.927,3.696,40.182,11.809,56.85,23.296H290.107z M281.6,350.833
			c0,0.011-0.002,0.021-0.002,0.032v7.535c0,7.857-3.562,14.897-9.153,19.597c-4.452,3.741-10.189,5.999-16.445,5.999
			c-14.114,0-25.6-11.477-25.6-25.6v-46.211c8.14,2.31,16.727,3.548,25.597,3.548c8.873,0,17.462-1.238,25.603-3.549V350.833z
			 M162.13,204.8c-9.411-0.002-17.063-7.655-17.063-17.066s7.653-17.065,17.063-17.066V204.8z M86.504,136.533h77.194
			c-1.035,5.612-1.568,11.316-1.568,17.059C143.436,153.376,128,168.88,128,187.733c0,18.823,15.307,34.131,34.13,34.133v0
			c0,36.403,20.834,68.034,51.203,83.597v37.939c-31.354,4.957-59.472,18.742-81.929,38.628
			c-8.393-3.473-14.67-11.229-15.895-20.696L86.504,136.533z M136.389,400.776c1.612,0.185,3.245,0.291,4.9,0.291H179.2v26.841
			c-14.736,4.042-25.6,17.547-25.6,33.549v33.476H94.112C96.234,458.373,111.89,425.24,136.389,400.776z M170.667,494.933v-33.476
			c0-9.771,7.953-17.724,17.724-17.724H323.61c9.771,0,17.724,7.953,17.724,17.724v33.476H170.667z M417.884,494.933H358.4v-33.476
			c0-16.002-10.864-29.507-25.6-33.549v-26.841h37.915c1.655,0,3.289-0.106,4.9-0.291
			C400.113,425.24,415.767,458.373,417.884,494.933z M380.594,382.033c-22.456-19.886-50.574-33.672-81.928-38.63v-37.941
			c30.368-15.564,51.197-47.194,51.197-83.596v0c0.001,0,0.002,0,0.003,0c18.825,0,34.133-15.309,34.133-34.133
			c0-18.862-15.367-34.399-34.137-34.143c-0.001-5.742-0.533-11.446-1.568-17.057h77.205l-29.013,224.802
			C395.267,370.804,388.989,378.561,380.594,382.033z M349.867,204.8v-34.133c9.412,0,17.067,7.654,17.067,17.067
			S359.279,204.8,349.867,204.8z"/>
	</g>
</g>
<g>
</g>
<g>
</g>
<g>
</g>
<g>
</g>
<g>
</g>
<g>
</g>
<g>
</g>
<g>
</g>
<g>
</g>
<g>
</g>
<g>
</g>
<g>
</g>
<g>
</g>
<g>
</g>
<g>
</g>
</svg>
