<?xml version="1.0" encoding="iso-8859-1"?>
<!-- Generator: Adobe Illustrator 19.0.0, SVG Export Plug-In . SVG Version: 6.00 Build 0)  -->
<svg version="1.1" id="Layer_1" xmlns="http://www.w3.org/2000/svg" xmlns:xlink="http://www.w3.org/1999/xlink" x="0px" y="0px"
	 viewBox="0 0 512 512" style="enable-background:new 0 0 512 512;" xml:space="preserve">
<g>
	<g>
		<path d="M493.106,10.525c-6.579-6.067-15.488-9.097-24.388-8.371l-76.894,6.409c-4.42,0.367-7.825,4.07-7.825,8.508v8.53h-59.731
			c-4.719,0-8.533,3.823-8.533,8.533V51.2h-93.867v-8.533C221.868,19.14,202.728,0,179.201,0c-23.526,0-42.667,19.14-42.667,42.667
			v42.667h-102.4c-4.719,0-8.533,3.823-8.533,8.533v25.6h-8.533c-4.719,0-8.533,3.823-8.533,8.533v324.267
			c0,4.71,3.814,8.533,8.533,8.533h8.533v42.667c0,4.71,3.814,8.533,8.533,8.533h51.2c4.719,0,8.533-3.823,8.533-8.533V460.8
			h170.667v42.667c0,4.71,3.814,8.533,8.533,8.533h51.2c4.719,0,8.533-3.823,8.533-8.533V460.8h8.533
			c4.719,0,8.533-3.823,8.533-8.533V128c0-4.71-3.814-8.533-8.533-8.533h-8.533v-25.6c0-4.71-3.814-8.533-8.533-8.533h-102.4V68.267
			h102.4c4.719,0,8.533-3.823,8.533-8.533V42.667h51.197v8.537c0,4.437,3.405,8.132,7.825,8.499l76.894,6.409
			c0.888,0.077,1.758,0.111,2.645,0.111c8.004,0,15.812-3.021,21.743-8.474c6.588-6.059,10.359-14.669,10.359-23.612
			C503.465,25.185,499.694,16.575,493.106,10.525z M76.801,494.933H42.668V460.8h34.133V494.933z M315.735,494.933h-34.133V460.8
			h34.133V494.933z M324.268,443.733h-51.2H85.335h-51.2h-8.533v-307.2h8.533h290.133h8.533v25.6h-51.2
			c-4.719,0-8.533,3.823-8.533,8.533s3.814,8.533,8.533,8.533h51.2v17.067h-25.6c-4.719,0-8.533,3.823-8.533,8.533
			c0,4.71,3.814,8.533,8.533,8.533h25.6V230.4h-51.2c-4.719,0-8.533,3.823-8.533,8.533s3.814,8.533,8.533,8.533h51.2v17.067h-25.6
			c-4.719,0-8.533,3.823-8.533,8.533s3.814,8.533,8.533,8.533h25.6v17.067h-51.2c-4.719,0-8.533,3.823-8.533,8.533
			s3.814,8.533,8.533,8.533h51.2V332.8h-25.6c-4.719,0-8.533,3.823-8.533,8.533s3.814,8.533,8.533,8.533h25.6v17.067h-51.2
			c-4.719,0-8.533,3.823-8.533,8.533s3.814,8.533,8.533,8.533h51.2v17.067h-25.6c-4.719,0-8.533,3.823-8.533,8.533
			s3.814,8.533,8.533,8.533h25.6v25.6H324.268z M315.735,119.467H42.668V102.4h102.4h68.267h102.4V119.467z M153.601,85.333V42.667
			c0-14.114,11.486-25.6,25.6-25.6s25.6,11.486,25.6,25.6v42.667H153.601z M481.552,45.187c-3.123,2.876-7.117,4.309-11.418,3.917
			l-69.069-5.751v-9.169c0-0.017,0.003-0.034,0.003-0.051s-0.002-0.034-0.003-0.051v-9.162l69.069-5.76
			c4.301-0.367,8.294,1.05,11.418,3.917c3.123,2.884,4.847,6.81,4.847,11.059C486.399,38.386,484.675,42.312,481.552,45.187z"/>
	</g>
</g>
<g>
</g>
<g>
</g>
<g>
</g>
<g>
</g>
<g>
</g>
<g>
</g>
<g>
</g>
<g>
</g>
<g>
</g>
<g>
</g>
<g>
</g>
<g>
</g>
<g>
</g>
<g>
</g>
<g>
</g>
</svg>
