<?xml version="1.0" encoding="utf-8"?>
<!-- Generator: Adobe Illustrator 16.0.4, SVG Export Plug-In . SVG Version: 6.00 Build 0)  -->
<!DOCTYPE svg PUBLIC "-//W3C//DTD SVG 1.1//EN" "http://www.w3.org/Graphics/SVG/1.1/DTD/svg11.dtd">
<svg version="1.1" id="Layer_1" xmlns="http://www.w3.org/2000/svg" xmlns:xlink="http://www.w3.org/1999/xlink" x="0px" y="0px"
	 width="87.123px" height="100.869px" viewBox="0 0 87.123 100.869" enable-background="new 0 0 87.123 100.869"
	 xml:space="preserve">
<polygon fill="#FFFFFF" stroke="#010101" stroke-width="3" stroke-miterlimit="10" points="85.623,74.784 43.562,99.136 1.5,74.784 
	1.5,26.085 43.562,1.733 85.623,26.085 "/>
<g>
	<path fill="#010101" d="M38.715,40.997c2.535,1.773,3.157,5.266,1.393,7.805c-1.766,2.541-5.25,3.164-7.786,1.396
		c-2.53-1.77-3.152-5.266-1.388-7.804C32.699,39.854,36.184,39.228,38.715,40.997z"/>
	<path fill="#010101" d="M41.57,39.937c2.525-1.34,2.692-8.395,3.572-11.318c1.044-3.457,2.478-6.921,4.236-10.221
		c0.91-1.713,3.755-4.823,5.881-4.937c2.359-0.125,4.34,3.177,4.17,5.178c-0.176,2.106-2.042,3.376-1.17,5.653
		c0.37,0.97,1.676,1.08,2.068,2.1c0.671,1.721-1.45,4.87-2.184,6.142c-2.362,4.09-4.303,6.417-8.359,8.56
		c-1.38,0.729-3.479,1.073-4.102,2.682c2.213,2.344,2.998,2.283,5.963,3.535c2.263,0.955,4.887,1.82,6.796,3.406
		c6.479,5.369,6.548,7.086,5.817,14.188c-6.389,3.145-8.021,3.678-15.289-0.562c-2.141-1.247-3.861-3.412-5.539-5.211
		c-2.195-2.357-2.414-3.115-5.371-4.388c-1.289,1.144-0.881,3.238-1.088,4.787c-0.602,4.556-2.105,7.19-5.115,10.829
		c-0.938,1.129-3.146,4.217-4.992,4.183c-1.089-0.022-1.644-1.21-2.678-1.226c-2.434-0.029-2.977,2.166-4.883,3.064
		c-1.813,0.85-5.589,0.127-6.291-2.133c-0.631-2.038,1.299-5.794,2.584-7.242c2.479-2.797,5.223-5.345,8.1-7.524
		c2.428-1.839,8.968-4.438,9.347-7.278"/>
</g>
</svg>
